<?xml version="1.0" encoding="UTF-8"?>
<svg width="1920px" height="1161px" viewBox="0 0 1920 1161" version="1.1" xmlns="http://www.w3.org/2000/svg" xmlns:xlink="http://www.w3.org/1999/xlink">
    <title>Fill 1</title>
    <g id="DESKTOP" stroke="none" stroke-width="1" fill="none" fill-rule="evenodd">
        <g id="STRONA-GŁÓWNA" fill="#FE5000">
            <polygon id="Fill-1" points="960.13 -595.482 807.157223 -309.768559 614.873073 -570.721247 506.209486 -265.490436 274.60797 -492.262259 221.873202 -172.847348 -51.2629372 -347.269234 -23.3314875 -25.5352494 -337.319094 -103.75454 -177.670575 173.89308 -478.87 282.518 -177.676567 391.124942 -337.337072 668.76657 -23.3434727 590.559265 -51.3048853 912.293249 221.861216 737.871363 274.584 1057.29227 506.221471 830.526436 614.879065 1135.75725 807.163215 874.804559 960.13 1160.518 1113.10877 874.798566 1305.39292 1135.75725 1414.04452 830.526436 1645.65203 1057.29826 1698.38081 737.877355 1971.52893 912.311227 1943.59149 590.571249 2257.57909 668.79054 2097.93057 391.136927 2399.13 282.518 2097.93657 173.905065 2257.59707 -103.73057 1943.60947 -25.5232646 1971.55889 -347.257249 1698.40478 -172.835363 1645.67001 -492.256267 1414.04452 -265.496428 1305.37494 -570.727239 1113.09079 -309.768559"></polygon>
        </g>
    </g>
</svg>